<svg width="36" height="36" viewBox="0 0 36 36" fill="none" xmlns="http://www.w3.org/2000/svg">
  <path fill-rule="evenodd" clip-rule="evenodd" d="M7.55398 0.0487979C6.20447 0.333535 5.11281 1.31078 4.66047 2.63932L4.5 3.11048V18.0058V32.9012L4.65853 33.3667C5.05603 34.5333 5.94377 35.4355 7.08964 35.8372L7.55398 36H18H28.446L28.9104 35.8372C30.0562 35.4355 30.944 34.5333 31.3415 33.3667L31.5 32.9012V21.2103V9.51936L31.3197 9.01918C31.2205 8.74409 31.0233 8.34167 30.8816 8.12504C30.5657 7.64212 23.7484 1.06802 23.1138 0.634259C22.878 0.473122 22.4821 0.267122 22.2339 0.176482L21.7828 0.0116827L14.8072 0.000977781C10.9706 -0.00493811 7.70668 0.0166126 7.55398 0.0487979ZM20.7217 5.38338L20.7416 8.67747L20.9679 9.1437C21.2312 9.6862 21.6076 10.0588 22.1562 10.3198L22.5463 10.5053L25.9994 10.5254L29.4524 10.5456V21.4819C29.4524 33.7651 29.4933 32.8283 28.9337 33.396C28.3758 33.9621 29.2003 33.9224 18 33.9224C6.79965 33.9224 7.62416 33.9621 7.06632 33.396C6.50168 32.8232 6.54756 34.184 6.54756 18.0058C6.54756 1.82462 6.50147 3.18873 7.06757 2.61439C7.60132 2.07274 7.20527 2.10105 14.3361 2.09485L20.7017 2.08929L20.7217 5.38338ZM25.9994 6.19893C27.2495 7.39887 28.2725 8.39119 28.2725 8.40414C28.2725 8.4171 27.0878 8.42774 25.6399 8.42774C23.3392 8.42774 22.9936 8.41379 22.8982 8.3171C22.8032 8.22054 22.7892 7.88171 22.7892 5.66798V3.12957L23.2577 3.57347C23.5154 3.81757 24.7492 4.99906 25.9994 6.19893ZM9.65436 14.2071C9.36132 14.3641 9.11568 14.7796 9.11568 15.1183C9.11568 15.4678 9.36118 15.8735 9.66915 16.033C9.93887 16.1725 10.0626 16.1747 17.7918 16.1747C25.521 16.1747 25.6447 16.1725 25.9144 16.033C26.2224 15.8735 26.4679 15.4678 26.4679 15.1183C26.4679 14.7689 26.2224 14.3631 25.9144 14.2037C25.6445 14.064 25.5241 14.062 17.7772 14.065C10.0854 14.068 9.90819 14.0711 9.65436 14.2071ZM9.65436 19.8413C9.36132 19.9983 9.11568 20.4138 9.11568 20.7525C9.11568 21.102 9.36118 21.5077 9.66915 21.6671C9.93887 21.8067 10.0626 21.8089 17.7918 21.8089C25.521 21.8089 25.6447 21.8067 25.9144 21.6671C26.2224 21.5077 26.4679 21.102 26.4679 20.7525C26.4679 20.403 26.2224 19.9973 25.9144 19.8379C25.6445 19.6982 25.5241 19.6962 17.7772 19.6992C10.0854 19.7022 9.90819 19.7053 9.65436 19.8413ZM9.65436 25.4743C9.36139 25.6326 9.11568 26.0488 9.11568 26.3867C9.11568 26.7385 9.36111 27.1419 9.67352 27.3036C9.94241 27.4427 10.0474 27.447 12.7563 27.4277C15.4645 27.4086 15.5673 27.4029 15.7523 27.2627C16.0963 27.0019 16.2221 26.7675 16.2221 26.3867C16.2221 26.0059 16.0963 25.7714 15.7523 25.5107C15.5669 25.3703 15.468 25.365 12.7373 25.3498C10.0348 25.3347 9.90278 25.34 9.65436 25.4743Z" fill="#4092F1" />
</svg>