<svg width="80" height="81" viewBox="0 0 80 81" fill="none" xmlns="http://www.w3.org/2000/svg">
<g clip-path="url(#clip0_0_1729)">
<mask id="mask0_0_1729" style="mask-type:alpha" maskUnits="userSpaceOnUse" x="0" y="0" width="80" height="81">
<circle cx="40" cy="40.338" r="40" fill="#C4C4C4"/>
</mask>
<g mask="url(#mask0_0_1729)">
<circle cx="40" cy="40.338" r="40" fill="#E2EEFC"/>
<ellipse cx="51.9531" cy="40.338" rx="41.6406" ry="38.5938" fill="#EDF5FE"/>
</g>
<path fill-rule="evenodd" clip-rule="evenodd" d="M24.0861 27.8565C21.0414 28.6763 18.7422 31.5127 18.7341 34.4585C18.7308 35.6402 19.7808 36.2849 20.612 35.6118C20.8733 35.4002 20.9991 35.0699 21.1005 34.3281C21.3494 32.5077 22.2809 31.172 23.8169 30.4326C24.9002 29.911 26.6164 29.8963 27.7166 30.399C29.2977 31.1215 30.3445 32.5935 30.5464 34.3784C30.6569 35.3535 31.093 35.8968 31.7653 35.8968C32.7127 35.8968 33.1023 34.971 32.7944 33.4518C31.9778 29.4241 27.9277 26.8218 24.0861 27.8565ZM52.3259 27.899C51.0397 28.2352 50.1145 28.7777 49.1033 29.7891C47.9083 30.9841 47.0134 33.0704 47.0134 34.6616C47.0134 35.2343 47.6269 35.8968 48.1572 35.8968C48.8702 35.8968 49.3055 35.3726 49.418 34.3784C49.6198 32.5935 50.6667 31.1215 52.2478 30.399C53.3316 29.9038 55.0656 29.9115 56.1128 30.4163C57.6655 31.1646 58.6161 32.5163 58.8639 34.3281C58.9653 35.0699 59.0911 35.4002 59.3523 35.6118C60.1836 36.2849 61.2336 35.6402 61.2303 34.4585C61.2241 32.1888 59.5688 29.5323 57.5108 28.4895C55.7795 27.6121 54.1384 27.4252 52.3259 27.899ZM8.69141 39.6077C8.3761 39.9591 6.66156 44.8979 6.65438 45.4759C6.64266 46.408 7.92859 46.9457 8.56453 46.2745C8.93 45.8885 10.6072 41.0354 10.6072 40.3634C10.6072 40.0659 10.4875 39.7432 10.3214 39.5929C9.94234 39.2498 9.005 39.2584 8.69141 39.6077ZM14.1536 39.6127C13.9055 39.8871 12.0134 45.1027 12.0134 45.5127C12.0134 45.6284 12.1781 45.9146 12.3794 46.1485C12.7997 46.6373 13.5941 46.727 13.9905 46.3304C14.2898 46.0312 16.0759 40.973 16.0759 40.4248C16.0759 40.2071 15.9664 39.8726 15.8327 39.6816C15.5228 39.239 14.5286 39.1984 14.1536 39.6127ZM65.9589 39.6076C65.6111 39.9554 63.8884 44.8991 63.8884 45.5496C63.8884 46.5195 65.1866 46.9459 65.8272 46.1865C66.007 45.9734 66.5755 44.5599 67.0906 43.0456L68.0272 40.2921L67.7 39.8523C67.2852 39.2943 66.397 39.1695 65.9589 39.6076ZM71.3589 39.6077C71.02 40.0034 69.3572 44.8951 69.3572 45.4963C69.3572 46.4499 70.5667 46.9524 71.23 46.2745C71.5694 45.9276 73.3019 41.027 73.31 40.391C73.3131 40.1559 73.1875 39.8218 73.0309 39.6488C72.6659 39.2456 71.6897 39.2215 71.3589 39.6077ZM24.897 47.2179C24.3795 47.7352 24.4102 48.0521 25.1241 49.5755C25.9439 51.3252 26.7195 52.4655 28.0291 53.8468C29.4127 55.3063 30.5741 56.2006 32.2308 57.0818C40.5461 61.5052 50.6916 58.0955 54.7062 49.5282C55.4105 48.0255 55.3939 47.4241 54.6364 46.999C53.8606 46.5635 53.4387 46.8838 52.5603 48.5756C51.5928 50.4387 51.1827 51.0526 50.1539 52.1782C48.5395 53.9446 46.1953 55.3723 43.6209 56.157C42.3931 56.5313 41.9998 56.5755 39.9041 56.5755C37.8086 56.5755 37.415 56.5313 36.1881 56.1573C31.9119 54.8538 28.6844 51.9927 26.9358 47.9557C26.438 46.8065 25.6084 46.5063 24.897 47.2179Z" fill="#4092F1"/>
</g>
<defs>
<clipPath id="clip0_0_1729">
<rect width="80" height="80" fill="white" transform="translate(0 0.338013)"/>
</clipPath>
</defs>
</svg>
